<svg width="19" height="19" viewBox="0 0 19 19" fill="none" xmlns="http://www.w3.org/2000/svg">
<mask id="mask0_60_1655" style="mask-type:alpha" maskUnits="userSpaceOnUse" x="0" y="0" width="19" height="19">
<rect width="19" height="19" fill="#FAF9FB"/>
</mask>
<g mask="url(#mask0_60_1655)">
<path d="M8.70833 10.2917H4.74999C4.52569 10.2917 4.33767 10.2158 4.18593 10.0641C4.0342 9.91237 3.95833 9.72435 3.95833 9.50004C3.95833 9.27573 4.0342 9.08771 4.18593 8.93598C4.33767 8.78424 4.52569 8.70837 4.74999 8.70837H8.70833V4.75004C8.70833 4.52574 8.7842 4.33771 8.93593 4.18598C9.08767 4.03424 9.27569 3.95837 9.49999 3.95837C9.7243 3.95837 9.91232 4.03424 10.0641 4.18598C10.2158 4.33771 10.2917 4.52574 10.2917 4.75004V8.70837H14.25C14.4743 8.70837 14.6623 8.78424 14.8141 8.93598C14.9658 9.08771 15.0417 9.27573 15.0417 9.50004C15.0417 9.72435 14.9658 9.91237 14.8141 10.0641C14.6623 10.2158 14.4743 10.2917 14.25 10.2917H10.2917V14.25C10.2917 14.4743 10.2158 14.6624 10.0641 14.8141C9.91232 14.9658 9.7243 15.0417 9.49999 15.0417C9.27569 15.0417 9.08767 14.9658 8.93593 14.8141C8.7842 14.6624 8.70833 14.4743 8.70833 14.25V10.2917Z" fill="#FAF9FB"/>
</g>
</svg>
