<svg width="12" height="12" viewBox="0 0 12 12" fill="none" xmlns="http://www.w3.org/2000/svg">
<path d="M6.75002 2.86875L6.75002 11.25C6.75002 11.4625 6.67815 11.6406 6.5344 11.7844C6.39065 11.9281 6.21252 12 6.00002 12C5.78752 12 5.6094 11.9281 5.46565 11.7844C5.3219 11.6406 5.25003 11.4625 5.25003 11.25L5.25003 2.86875L1.57502 6.54375C1.42502 6.69375 1.25002 6.76562 1.05002 6.75937C0.850025 6.75312 0.675025 6.675 0.525025 6.525C0.387526 6.375 0.31565 6.2 0.3094 6C0.30315 5.8 0.375026 5.625 0.525025 5.475L5.47502 0.525C5.55002 0.45 5.63127 0.396875 5.71877 0.365625C5.80627 0.334375 5.90002 0.31875 6.00002 0.31875C6.10002 0.31875 6.19377 0.334375 6.28127 0.365625C6.36877 0.396875 6.45002 0.45 6.52502 0.525L11.475 5.475C11.6125 5.6125 11.6813 5.78438 11.6813 5.99063C11.6813 6.19688 11.6125 6.375 11.475 6.525C11.325 6.675 11.1469 6.75 10.9406 6.75C10.7344 6.75 10.5563 6.675 10.4063 6.525L6.75002 2.86875Z" fill="#22C578"/>
</svg>
