<svg width="30" height="30" viewBox="0 0 30 30" fill="none" xmlns="http://www.w3.org/2000/svg">
<mask id="mask0_4_317" style="mask-type:alpha" maskUnits="userSpaceOnUse" x="0" y="0" width="30" height="30">
<rect width="30" height="30" fill="#D9D9D9"/>
</mask>
<g mask="url(#mask0_4_317)">
<path d="M15.0665 26.5151C14.677 26.5151 14.3477 26.3835 14.0787 26.1204C13.8098 25.8573 13.6753 25.5309 13.6753 25.1414V23.7745C12.7024 23.5545 11.8529 23.1693 11.1269 22.6189C10.401 22.0686 9.81341 21.319 9.36404 20.3698C9.19466 20.0073 9.19831 19.6293 9.37498 19.2357C9.55164 18.8422 9.85237 18.5667 10.2772 18.4092C10.6278 18.2606 10.9858 18.2688 11.3512 18.4335C11.7166 18.5983 12.018 18.8723 12.2553 19.2554C12.5978 19.8098 13.0222 20.2278 13.5284 20.5095C14.0349 20.7914 14.6309 20.9323 15.3165 20.9323C16.1353 20.9323 16.8033 20.766 17.3206 20.4335C17.8379 20.101 18.0965 19.5816 18.0965 18.8751C18.0965 18.2284 17.8614 17.6945 17.3912 17.2732C16.9212 16.852 15.8647 16.3882 14.2215 15.882C12.477 15.343 11.2596 14.6564 10.5694 13.822C9.87914 12.9878 9.53404 11.9847 9.53404 10.8126C9.53404 9.50552 9.95675 8.4475 10.8022 7.63854C11.6478 6.82979 12.6055 6.33802 13.6753 6.16323V4.85886C13.6753 4.46927 13.8098 4.14292 14.0787 3.8798C14.3477 3.61667 14.677 3.48511 15.0665 3.48511C15.4678 3.48511 15.7971 3.61667 16.0544 3.8798C16.3116 4.14292 16.4403 4.46927 16.4403 4.85886V6.16323C17.232 6.32344 17.9283 6.59625 18.5294 6.98167C19.1302 7.36709 19.6299 7.85281 20.0284 8.43886C20.263 8.76865 20.3054 9.13844 20.1556 9.54823C20.0056 9.95823 19.7124 10.2538 19.2759 10.4348C18.9607 10.5717 18.6232 10.5799 18.2634 10.4595C17.9038 10.3389 17.5298 10.1092 17.1412 9.77042C16.8939 9.52584 16.5998 9.33719 16.2587 9.20448C15.9177 9.07177 15.5116 9.00542 15.0406 9.00542C14.2064 9.00542 13.5881 9.17323 13.1856 9.50886C12.7829 9.84448 12.5815 10.2614 12.5815 10.7595C12.5815 11.3647 12.8499 11.8475 13.3865 12.2079C13.9232 12.5685 14.9859 12.9794 16.5747 13.4404C18.0592 13.8806 19.192 14.5685 19.9728 15.5042C20.7536 16.4398 21.144 17.5426 21.144 18.8126C21.144 20.3389 20.6948 21.5051 19.7962 22.3114C18.8977 23.1174 17.779 23.6259 16.4403 23.837V25.1414C16.4403 25.5309 16.3087 25.8573 16.0456 26.1204C15.7825 26.3835 15.4561 26.5151 15.0665 26.5151Z" fill="#16A31C"/>
</g>
</svg>
