<svg width="24" height="24" viewBox="0 0 24 24" fill="none" xmlns="http://www.w3.org/2000/svg">
<mask id="mask0_60_1590" style="mask-type:alpha" maskUnits="userSpaceOnUse" x="0" y="0" width="24" height="24">
<rect width="24" height="24" fill="#828282"/>
</mask>
<g mask="url(#mask0_60_1590)">
<path d="M21.5853 14.4518L15.2353 20.8018C15.1239 20.9136 14.9987 20.9975 14.8595 21.0535C14.7202 21.1095 14.5739 21.1375 14.4208 21.1375H13.518C13.3647 21.1375 13.232 21.0815 13.12 20.9695C13.0082 20.8577 12.9523 20.7251 12.9523 20.5718V19.675C12.9523 19.5217 12.9803 19.3754 13.0363 19.2363C13.0921 19.0971 13.176 18.9718 13.288 18.8603L19.638 12.5103L21.5853 14.4518ZM1.79675 16.8325V6.98203C1.79675 6.35236 2.0185 5.81578 2.462 5.37228C2.9055 4.92878 3.44209 4.70703 4.07175 4.70703H19.9283C20.5579 4.70703 21.0945 4.92878 21.538 5.37228C21.9815 5.81578 22.2033 6.35236 22.2033 6.98203C22.2033 7.2052 22.0973 7.43861 21.8853 7.68228C21.6734 7.92595 21.4242 8.04778 21.1375 8.04778H20.8668C20.5633 8.04778 20.274 8.10478 19.999 8.21878C19.724 8.33278 19.4808 8.49536 19.2695 8.70653L15.7543 12.2218C15.5431 12.4329 15.3 12.5955 15.025 12.7095C14.7498 12.8235 14.4605 12.8805 14.157 12.8805H7.03C6.74667 12.8805 6.50917 12.9764 6.3175 13.168C6.12584 13.3597 6.03 13.5972 6.03 13.8805C6.03 14.1639 6.12584 14.4014 6.3175 14.593C6.50917 14.7847 6.74667 14.8805 7.03 14.8805H11.7223C11.9836 14.8805 12.1618 14.9954 12.257 15.2253C12.3523 15.4551 12.3067 15.6634 12.12 15.85L9.52125 18.449C9.30992 18.6602 9.06675 18.8228 8.79175 18.9368C8.51675 19.0506 8.2275 19.1075 7.924 19.1075H4.07175C3.44209 19.1075 2.9055 18.8859 2.462 18.4425C2.0185 17.999 1.79675 17.4624 1.79675 16.8325ZM7.03 10.9343H11.03C11.3133 10.9343 11.5508 10.8384 11.7425 10.6468C11.9342 10.4551 12.03 10.2176 12.03 9.93428C12.03 9.65095 11.9342 9.41345 11.7425 9.22178C11.5508 9.03011 11.3133 8.93428 11.03 8.93428H7.03C6.74667 8.93428 6.50917 9.03011 6.3175 9.22178C6.12584 9.41345 6.03 9.65095 6.03 9.93428C6.03 10.2176 6.12584 10.4551 6.3175 10.6468C6.50917 10.8384 6.74667 10.9343 7.03 10.9343ZM22.2033 13.8338L20.262 11.8925L21.144 11.0043C21.2513 10.8971 21.3769 10.8435 21.5208 10.8435C21.6646 10.8435 21.7901 10.8971 21.8973 11.0043L23.0853 12.1925C23.1926 12.2997 23.2463 12.4252 23.2463 12.569C23.2463 12.7129 23.1926 12.8384 23.0853 12.9458L22.2033 13.8338Z" fill="#828282"/>
</g>
</svg>
