<svg width="24" height="24" viewBox="0 0 24 24" fill="none" xmlns="http://www.w3.org/2000/svg">
<mask id="mask0_60_1617" style="mask-type:alpha" maskUnits="userSpaceOnUse" x="0" y="0" width="24" height="24">
<rect width="24" height="24" fill="#828282"/>
</mask>
<g mask="url(#mask0_60_1617)">
<path d="M6.93424 21.2032C6.30458 21.2032 5.76799 20.9815 5.32449 20.538C4.88099 20.0944 4.65924 19.5579 4.65924 18.9282V6.0657C4.34008 6.0657 4.07066 5.95595 3.85099 5.73645C3.63149 5.51678 3.52174 5.24736 3.52174 4.9282C3.52174 4.60903 3.63149 4.33961 3.85099 4.11995C4.07066 3.90045 4.34008 3.7907 4.65924 3.7907H8.86249C8.86249 3.47153 8.97224 3.20211 9.19174 2.98245C9.41141 2.76295 9.68083 2.6532 9.99999 2.6532H13.988C14.3072 2.6532 14.5766 2.76295 14.7962 2.98245C15.0157 3.20211 15.1255 3.47153 15.1255 3.7907H19.3407C19.6599 3.7907 19.9293 3.90045 20.149 4.11995C20.3685 4.33961 20.4782 4.60903 20.4782 4.9282C20.4782 5.24736 20.3685 5.51678 20.149 5.73645C19.9293 5.95595 19.6599 6.0657 19.3407 6.0657V18.9282C19.3407 19.5579 19.119 20.0944 18.6755 20.538C18.232 20.9815 17.6954 21.2032 17.0657 21.2032H6.93424ZM9.96424 16.9939C10.2634 16.9939 10.5158 16.8911 10.7215 16.6855C10.9272 16.48 11.03 16.2275 11.03 15.9282V9.0597C11.03 8.76037 10.9272 8.50795 10.7215 8.30245C10.5158 8.09678 10.2634 7.99395 9.96424 7.99395C9.66491 7.99395 9.41141 8.09678 9.20374 8.30245C8.99624 8.50795 8.89249 8.76037 8.89249 9.0597V15.9282C8.89249 16.2275 8.99624 16.48 9.20374 16.6855C9.41141 16.8911 9.66491 16.9939 9.96424 16.9939ZM14.0417 16.9939C14.3411 16.9939 14.5936 16.8911 14.7992 16.6855C15.0047 16.48 15.1075 16.2275 15.1075 15.9282V9.0597C15.1075 8.76037 15.0047 8.50795 14.7992 8.30245C14.5936 8.09678 14.3411 7.99395 14.0417 7.99395C13.7426 7.99395 13.4892 8.09678 13.2815 8.30245C13.0738 8.50795 12.97 8.76037 12.97 9.0597V15.9282C12.97 16.2275 13.0738 16.48 13.2815 16.6855C13.4892 16.8911 13.7426 16.9939 14.0417 16.9939Z" fill="#828282"/>
</g>
</svg>
