<svg width="30" height="30" viewBox="0 0 30 30" fill="none" xmlns="http://www.w3.org/2000/svg">
<mask id="mask0_4_329" style="mask-type:alpha" maskUnits="userSpaceOnUse" x="0" y="0" width="30" height="30">
<rect width="30" height="30" fill="#D9D9D9"/>
</mask>
<g mask="url(#mask0_4_329)">
<path d="M21.8506 26.7935C21.625 26.7935 21.4053 26.7669 21.1916 26.7135C20.9778 26.66 20.7745 26.5694 20.5816 26.4417L17.1141 24.4307C16.7282 24.2053 16.4277 23.9049 16.2125 23.5295C15.9975 23.1539 15.89 22.7405 15.89 22.2895V18.1835C15.89 17.7325 15.9975 17.3193 16.2125 16.9439C16.4277 16.5682 16.7282 16.2677 17.1141 16.0423L20.5991 14.0314C20.7922 13.9153 20.9956 13.8306 21.2094 13.7773C21.4231 13.7238 21.6369 13.697 21.8506 13.697C22.0644 13.697 22.2729 13.726 22.4763 13.7842C22.6796 13.8421 22.8777 13.9245 23.0706 14.0314L26.5556 16.0423C26.9417 16.2677 27.2474 16.5682 27.4728 16.9439C27.6984 17.3193 27.8113 17.7325 27.8113 18.1835V22.2895C27.8113 22.7405 27.7014 23.1539 27.4816 23.5295C27.262 23.9049 26.9533 24.2053 26.5556 24.4307L23.0885 26.4417C22.8955 26.5604 22.6974 26.6488 22.4941 26.7067C22.2905 26.7646 22.076 26.7935 21.8506 26.7935ZM5.21188 25.901C4.28897 25.901 3.50615 25.5797 2.86345 24.937C2.22074 24.2943 1.89938 23.5115 1.89938 22.5885V21.7651C1.89938 20.9009 2.1324 20.1255 2.59845 19.4389C3.06449 18.7524 3.61001 18.2529 4.23501 17.9404C5.43709 17.3452 6.69418 16.8757 8.00626 16.532C9.31813 16.1882 10.648 15.9897 11.9959 15.9364C12.198 15.9245 12.3792 15.9639 12.5394 16.0545C12.6998 16.1451 12.8275 16.2705 12.9225 16.4307C13.0177 16.5911 13.0787 16.7701 13.1053 16.9676C13.132 17.1649 13.1127 17.3646 13.0475 17.5667C12.8873 18.0423 12.7671 18.5172 12.6869 18.9914C12.6067 19.4655 12.5666 19.9403 12.5666 20.4157C12.5666 21.0645 12.6431 21.7079 12.7963 22.346C12.9494 22.9842 13.1731 23.6067 13.4675 24.2135C13.5536 24.4154 13.5966 24.6158 13.5966 24.8148C13.5966 25.0135 13.549 25.1931 13.4538 25.3535C13.3588 25.5138 13.2333 25.645 13.0775 25.7473C12.9217 25.8498 12.7427 25.901 12.5406 25.901H5.21188ZM12.5 14.6998C10.9483 14.6998 9.62699 14.1543 8.53595 13.0632C7.4449 11.9722 6.89938 10.6508 6.89938 9.09917C6.89938 7.5475 7.4449 6.22917 8.53595 5.14417C9.62699 4.05896 10.9483 3.51636 12.5 3.51636C14.0517 3.51636 15.373 4.05896 16.4641 5.14417C17.5551 6.22917 18.1006 7.5475 18.1006 9.09917C18.1006 10.6508 17.5551 11.9722 16.4641 13.0632C15.373 14.1543 14.0517 14.6998 12.5 14.6998ZM19.1075 17.4717L21.8506 19.0667L24.5938 17.4717L21.8506 15.9076L19.1075 17.4717ZM22.9647 23.901L25.5653 22.4173V19.3682L22.9647 20.901V23.901ZM18.1359 22.4173L20.7366 23.9323V20.9323L18.1359 19.3995V22.4173Z" fill="#9333EA"/>
</g>
</svg>
