<svg width="20" height="20" viewBox="0 0 20 20" fill="none" xmlns="http://www.w3.org/2000/svg">
<mask id="mask0_60_1652" style="mask-type:alpha" maskUnits="userSpaceOnUse" x="0" y="0" width="20" height="20">
<rect width="20" height="20" fill="#828282"/>
</mask>
<g mask="url(#mask0_60_1652)">
<path d="M6.66668 16.1875L4.79168 18.0625C4.62501 18.2291 4.43057 18.309 4.20834 18.302C3.98612 18.2951 3.79168 18.2083 3.62501 18.0416C3.47223 17.875 3.39237 17.6805 3.38543 17.4583C3.37848 17.2361 3.45834 17.0416 3.62501 16.875L5.50001 15H4.45834C4.22223 15 4.02432 14.9201 3.86459 14.7604C3.70487 14.6007 3.62501 14.4027 3.62501 14.1666C3.62501 13.9305 3.70487 13.7326 3.86459 13.5729C4.02432 13.4132 4.22223 13.3333 4.45834 13.3333H7.50001C7.73612 13.3333 7.93404 13.4132 8.09376 13.5729C8.25348 13.7326 8.33334 13.9305 8.33334 14.1666V17.2083C8.33334 17.4444 8.25348 17.6423 8.09376 17.802C7.93404 17.9618 7.73612 18.0416 7.50001 18.0416C7.2639 18.0416 7.06598 17.9618 6.90626 17.802C6.74654 17.6423 6.66668 17.4444 6.66668 17.2083V16.1875ZM10.8333 18.3333C10.5972 18.3333 10.3993 18.2534 10.2396 18.0937C10.0799 17.934 10 17.7361 10 17.5V14.1666C10 13.4722 9.75695 12.8819 9.27084 12.3958C8.78473 11.9097 8.19445 11.6666 7.50001 11.6666H4.16668C3.93057 11.6666 3.73265 11.5868 3.57293 11.427C3.4132 11.2673 3.33334 11.0694 3.33334 10.8333V3.33329C3.33334 2.87496 3.49654 2.4826 3.82293 2.15621C4.14932 1.82982 4.54168 1.66663 5.00001 1.66663H11.6667L16.6667 6.66663V16.6666C16.6667 17.125 16.5035 17.5173 16.1771 17.8437C15.8507 18.1701 15.4583 18.3333 15 18.3333H10.8333ZM10.8333 7.49996H15L10.8333 3.33329V7.49996Z" fill="#828282"/>
</g>
</svg>
