<svg width="26" height="26" viewBox="0 0 26 26" fill="none" xmlns="http://www.w3.org/2000/svg">
<mask id="mask0_60_1873" style="mask-type:alpha" maskUnits="userSpaceOnUse" x="0" y="0" width="26" height="26">
<rect width="26" height="26" fill="#4B5563"/>
</mask>
<g mask="url(#mask0_60_1873)">
<path d="M10.2399 12.9539H15.76C16.0773 12.9539 16.3474 13.0654 16.5704 13.2884C16.7932 13.5114 16.9046 13.7815 16.9046 14.0987C16.9046 14.4158 16.7932 14.6858 16.5704 14.9088C16.3474 15.1318 16.0773 15.2433 15.76 15.2433H10.2399C9.92269 15.2433 9.65258 15.1318 9.42959 14.9088C9.20679 14.6858 9.09538 14.4158 9.09538 14.0987C9.09538 13.7815 9.20679 13.5114 9.42959 13.2884C9.65258 13.0654 9.92269 12.9539 10.2399 12.9539ZM10.2399 16.2806H15.76C16.0773 16.2806 16.3474 16.3921 16.5704 16.615C16.7932 16.838 16.9046 17.108 16.9046 17.4251C16.9046 17.7423 16.7932 18.0124 16.5704 18.2352C16.3474 18.4581 16.0773 18.5696 15.76 18.5696H10.2399C9.92269 18.5696 9.65258 18.4581 9.42959 18.2352C9.20679 18.0124 9.09538 17.7423 9.09538 17.4251C9.09538 17.108 9.20679 16.838 9.42959 16.615C9.65258 16.3921 9.92269 16.2806 10.2399 16.2806ZM10.2399 19.6224H15.7755C16.0925 19.6224 16.36 19.7313 16.578 19.9493C16.7957 20.167 16.9046 20.4345 16.9046 20.7517C16.9046 21.0688 16.7957 21.3388 16.578 21.5618C16.36 21.7848 16.0925 21.8963 15.7755 21.8963H10.2245C9.90743 21.8963 9.63994 21.7848 9.42201 21.5618C9.20426 21.3388 9.09538 21.0688 9.09538 20.7517C9.09538 20.4345 9.20679 20.167 9.42959 19.9493C9.65258 19.7313 9.92269 19.6224 10.2399 19.6224ZM5.18699 20.4609V13.2296H3.42197C3.08758 13.2296 2.86243 13.074 2.74651 12.7627C2.63077 12.4514 2.69776 12.189 2.94747 11.9754L11.0782 4.67237C11.3483 4.42284 11.65 4.23696 11.9833 4.11472C12.3164 3.99267 12.6553 3.93164 13 3.93164C13.3447 3.93164 13.6836 3.99267 14.0167 4.11472C14.35 4.23696 14.6517 4.42284 14.9218 4.67237L23.0525 11.9754C23.3022 12.189 23.3692 12.4514 23.2535 12.7627C23.1376 13.074 22.9124 13.2296 22.578 13.2296H20.813V20.4609C20.813 20.8597 20.6734 21.1986 20.3943 21.4776C20.1153 21.7567 19.7764 21.8963 19.3776 21.8963C18.9787 21.8963 18.6397 21.7567 18.3606 21.4776C18.0816 21.1986 17.9422 20.8597 17.9422 20.4609V11.9012H8.05782V20.4609C8.05782 20.8597 7.91834 21.1986 7.63938 21.4776C7.36025 21.7567 7.02125 21.8963 6.6224 21.8963C6.22356 21.8963 5.88465 21.7567 5.6057 21.4776C5.32656 21.1986 5.18699 20.8597 5.18699 20.4609Z" fill="#4B5563"/>
</g>
</svg>
