<svg width="26" height="26" viewBox="0 0 26 26" fill="none" xmlns="http://www.w3.org/2000/svg">
<mask id="mask0_60_1864" style="mask-type:alpha" maskUnits="userSpaceOnUse" x="0" y="0" width="26" height="26">
<rect width="26" height="26" fill="#4B5563"/>
</mask>
<g mask="url(#mask0_60_1864)">
<path d="M3.81274 20.3997V10.9252C3.81274 10.4698 3.9125 10.0402 4.11202 9.63628C4.31135 9.23238 4.59238 8.89546 4.95512 8.62553L11.2712 3.88811C11.7831 3.49721 12.3593 3.30176 13 3.30176C13.6406 3.30176 14.2168 3.49721 14.7287 3.88811L21.0448 8.62553C21.4075 8.89546 21.6886 9.23238 21.8879 9.63628C22.0874 10.0402 22.1872 10.4698 22.1872 10.9252V20.3997C22.1872 21.1996 21.9087 21.878 21.3516 22.4351C20.7946 22.9921 20.1162 23.2706 19.3163 23.2706H16.7245C16.3258 23.2706 15.9869 23.131 15.7077 22.8519C15.4286 22.5727 15.289 22.2338 15.289 21.8352V16.4797C15.289 16.0809 15.1496 15.7419 14.8706 15.4627C14.5915 15.1838 14.2525 15.0443 13.8536 15.0443H12.1463C11.7474 15.0443 11.4084 15.1838 11.1293 15.4627C10.8503 15.7419 10.7109 16.0809 10.7109 16.4797V21.8352C10.7109 22.2338 10.5713 22.5727 10.2922 22.8519C10.013 23.131 9.67412 23.2706 9.27545 23.2706H6.68358C5.88372 23.2706 5.20528 22.9921 4.64827 22.4351C4.09125 21.878 3.81274 21.1996 3.81274 20.3997Z" fill="#4B5563"/>
</g>
</svg>
