<svg width="24" height="24" viewBox="0 0 24 24" fill="none" xmlns="http://www.w3.org/2000/svg">
<mask id="mask0_4_381" style="mask-type:alpha" maskUnits="userSpaceOnUse" x="0" y="0" width="24" height="24">
<rect width="24" height="24" fill="#E95304"/>
</mask>
<g mask="url(#mask0_4_381)">
<path d="M4.84453 19.4805C4.47653 19.4805 4.1637 19.3517 3.90603 19.094C3.64836 18.8364 3.51953 18.5235 3.51953 18.1555C3.51953 17.7874 3.64836 17.4744 3.90603 17.2168C4.1637 16.9593 4.47653 16.8305 4.84453 16.8305H5.35003V10.311C5.35003 8.8052 5.79261 7.45586 6.67778 6.26303C7.56295 5.07036 8.7287 4.2932 10.175 3.93153V3.34453C10.175 2.8337 10.3514 2.40186 10.7043 2.04903C11.0573 1.69603 11.4892 1.51953 12 1.51953C12.5109 1.51953 12.9428 1.69603 13.2958 2.04903C13.6486 2.40186 13.825 2.8337 13.825 3.34453V3.93153C15.2809 4.2932 16.449 5.06803 17.3295 6.25603C18.2099 7.44403 18.65 8.7957 18.65 10.311V16.8305H19.1555C19.5235 16.8305 19.8364 16.9593 20.094 17.2168C20.3517 17.4744 20.4805 17.7874 20.4805 18.1555C20.4805 18.5235 20.3517 18.8364 20.094 19.094C19.8364 19.3517 19.5235 19.4805 19.1555 19.4805H4.84453ZM12.0143 22.636C11.4171 22.636 10.9062 22.426 10.4815 22.006C10.0569 21.586 9.84453 21.0775 9.84453 20.4805H14.1695C14.1695 21.0775 13.9596 21.586 13.5398 22.006C13.1198 22.426 12.6113 22.636 12.0143 22.636Z" fill="#E95304"/>
</g>
</svg>
