<svg width="26" height="26" viewBox="0 0 26 26" fill="none" xmlns="http://www.w3.org/2000/svg">
<mask id="mask0_60_1867" style="mask-type:alpha" maskUnits="userSpaceOnUse" x="0" y="0" width="26" height="26">
<rect width="26" height="26" fill="#4B5563"/>
</mask>
<g mask="url(#mask0_60_1867)">
<path d="M3.81279 19.3165V7.15607L2.33269 3.9402C2.16549 3.58775 2.15132 3.22312 2.29017 2.8463C2.4292 2.46948 2.68008 2.19748 3.04281 2.03028C3.40537 1.86291 3.77253 1.84675 4.14429 1.9818C4.51606 2.11686 4.78554 2.36575 4.95273 2.72849L6.99211 7.11707H19.0079L21.0473 2.71305C21.2145 2.3505 21.4865 2.10223 21.8633 1.96826C22.2401 1.83447 22.6099 1.85514 22.9726 2.03028C23.3251 2.19748 23.5708 2.46948 23.7098 2.8463C23.8487 3.22312 23.8345 3.58775 23.6673 3.9402L22.1872 7.15607V19.3165C22.1872 20.1164 21.9087 20.7948 21.3517 21.3518C20.7947 21.9088 20.1162 22.1873 19.3164 22.1873H6.68363C5.88377 22.1873 5.20533 21.9088 4.64831 21.3518C4.0913 20.7948 3.81279 20.1164 3.81279 19.3165ZM10.8333 14.2059H15.1667C15.5043 14.2059 15.7897 14.0893 16.0228 13.8562C16.2559 13.6231 16.3724 13.3378 16.3724 13.0001C16.3724 12.6625 16.2559 12.3771 16.0228 12.144C15.7897 11.9109 15.5043 11.7944 15.1667 11.7944H10.8333C10.4957 11.7944 10.2103 11.9109 9.97723 12.144C9.74413 12.3771 9.62759 12.6625 9.62759 13.0001C9.62759 13.3378 9.74413 13.6231 9.97723 13.8562C10.2103 14.0893 10.4957 14.2059 10.8333 14.2059Z" fill="#4B5563"/>
</g>
</svg>
