<svg width="30" height="30" viewBox="0 0 30 30" fill="none" xmlns="http://www.w3.org/2000/svg">
<mask id="mask0_4_305" style="mask-type:alpha" maskUnits="userSpaceOnUse" x="0" y="0" width="30" height="30">
<rect width="30" height="30" fill="#D9D9D9"/>
</mask>
<g mask="url(#mask0_4_305)">
<path d="M13.75 27.8449V15.6302L3.14941 9.56645V19.8449C3.14941 20.4447 3.29712 20.9968 3.59254 21.5011C3.88775 22.0057 4.29212 22.4079 4.80566 22.7077L13.75 27.8449ZM16.25 27.8449L25.1944 22.7077C25.708 22.4079 26.1123 22.0057 26.4075 21.5011C26.703 20.9968 26.8507 20.4447 26.8507 19.8449V9.53113L16.25 15.6127V27.8449ZM21.4838 9.73895L25.4538 7.44145L16.6563 2.38426C16.1427 2.08447 15.5907 1.93457 15 1.93457C14.4094 1.93457 13.8573 2.08447 13.3438 2.38426L11.0163 3.71988L21.4838 9.73895ZM14.9822 13.4739L18.9485 11.2077L8.51223 5.15738L4.49723 7.4727L14.9822 13.4739Z" fill="#006CF5"/>
</g>
</svg>
