<svg width="27" height="27" viewBox="0 0 27 27" fill="none" xmlns="http://www.w3.org/2000/svg">
<mask id="mask0_60_1542" style="mask-type:alpha" maskUnits="userSpaceOnUse" x="0" y="0" width="27" height="27">
<rect width="27" height="27" fill="white"/>
</mask>
<g mask="url(#mask0_60_1542)">
<path d="M12.375 24.4406V14.1469L3.375 8.94375V17.9719C3.375 18.3844 3.47344 18.7594 3.67031 19.0969C3.86719 19.4344 4.14375 19.7062 4.5 19.9125L12.375 24.4406ZM14.625 24.4406L22.5 19.9125C22.8563 19.7062 23.1328 19.4344 23.3297 19.0969C23.5266 18.7594 23.625 18.3844 23.625 17.9719V8.94375L14.625 14.1469V24.4406ZM19.0969 8.97187L22.4156 7.03125L14.625 2.55938C14.2688 2.35313 13.8938 2.25 13.5 2.25C13.1062 2.25 12.7312 2.35313 12.375 2.55938L10.1531 3.825L19.0969 8.97187ZM13.5 12.2063L16.8469 10.2937L7.93125 5.11875L4.55625 7.05938L13.5 12.2063Z" fill="white"/>
</g>
</svg>
