<svg width="27" height="27" viewBox="0 0 27 27" fill="none" xmlns="http://www.w3.org/2000/svg">
<mask id="mask0_4_387" style="mask-type:alpha" maskUnits="userSpaceOnUse" x="0" y="0" width="27" height="27">
<rect width="27" height="27" fill="#0052EA"/>
</mask>
<g mask="url(#mask0_4_387)">
<path d="M20.25 12.375H18C17.6812 12.375 17.4141 12.2672 17.1984 12.0516C16.9828 11.8359 16.875 11.5687 16.875 11.25C16.875 10.9313 16.9828 10.6641 17.1984 10.4484C17.4141 10.2328 17.6812 10.125 18 10.125H20.25V7.875C20.25 7.55625 20.3578 7.28906 20.5734 7.07344C20.7891 6.85781 21.0562 6.75 21.375 6.75C21.6938 6.75 21.9609 6.85781 22.1766 7.07344C22.3922 7.28906 22.5 7.55625 22.5 7.875V10.125H24.75C25.0688 10.125 25.3359 10.2328 25.5516 10.4484C25.7672 10.6641 25.875 10.9313 25.875 11.25C25.875 11.5687 25.7672 11.8359 25.5516 12.0516C25.3359 12.2672 25.0688 12.375 24.75 12.375H22.5V14.625C22.5 14.9438 22.3922 15.2109 22.1766 15.4266C21.9609 15.6422 21.6938 15.75 21.375 15.75C21.0562 15.75 20.7891 15.6422 20.5734 15.4266C20.3578 15.2109 20.25 14.9438 20.25 14.625V12.375ZM10.125 13.5C8.8875 13.5 7.82813 13.0594 6.94688 12.1781C6.06563 11.2969 5.625 10.2375 5.625 9C5.625 7.7625 6.06563 6.70312 6.94688 5.82188C7.82813 4.94063 8.8875 4.5 10.125 4.5C11.3625 4.5 12.4219 4.94063 13.3031 5.82188C14.1844 6.70312 14.625 7.7625 14.625 9C14.625 10.2375 14.1844 11.2969 13.3031 12.1781C12.4219 13.0594 11.3625 13.5 10.125 13.5ZM1.125 20.25V19.35C1.125 18.7125 1.28906 18.1266 1.61719 17.5922C1.94531 17.0578 2.38125 16.65 2.925 16.3688C4.0875 15.7875 5.26875 15.3516 6.46875 15.0609C7.66875 14.7703 8.8875 14.625 10.125 14.625C11.3625 14.625 12.5813 14.7703 13.7812 15.0609C14.9812 15.3516 16.1625 15.7875 17.325 16.3688C17.8688 16.65 18.3047 17.0578 18.6328 17.5922C18.9609 18.1266 19.125 18.7125 19.125 19.35V20.25C19.125 20.8687 18.9047 21.3984 18.4641 21.8391C18.0234 22.2797 17.4937 22.5 16.875 22.5H3.375C2.75625 22.5 2.22656 22.2797 1.78594 21.8391C1.34531 21.3984 1.125 20.8687 1.125 20.25Z" fill="#0052EA"/>
</g>
</svg>
