<svg width="26" height="26" viewBox="0 0 26 26" fill="none" xmlns="http://www.w3.org/2000/svg">
<mask id="mask0_60_1888" style="mask-type:alpha" maskUnits="userSpaceOnUse" x="0" y="0" width="26" height="26">
<rect width="26" height="26" fill="#4B5563"/>
</mask>
<g mask="url(#mask0_60_1888)">
<path d="M11.7942 19.5307V19.9039C11.7942 20.0995 11.8667 20.2667 12.0117 20.4055C12.1568 20.5445 12.3261 20.6141 12.5195 20.6141H13.4956C13.6911 20.6141 13.8584 20.5416 13.9974 20.3966C14.1363 20.2514 14.2057 20.0821 14.2057 19.8888V19.5307H15.1666C15.5082 19.5307 15.7946 19.4166 16.0257 19.1884C16.2568 18.9603 16.3724 18.6776 16.3724 18.3401V14.9677C16.3724 14.6261 16.2568 14.3397 16.0257 14.1086C15.7946 13.8775 15.5082 13.762 15.1666 13.762H12.039V12.8011H15.1821C15.5193 12.8011 15.802 12.6855 16.03 12.4544C16.2583 12.2233 16.3724 11.9369 16.3724 11.5953C16.3724 11.258 16.2583 10.9753 16.03 10.7471C15.802 10.5188 15.5193 10.4047 15.1821 10.4047H14.2057V10.0315C14.2057 9.83597 14.1332 9.66877 13.9882 9.52993C13.8431 9.3909 13.6738 9.32138 13.4804 9.32138H12.5043C12.3088 9.32138 12.1415 9.3909 12.0025 9.52993C11.8636 9.66877 11.7942 9.83597 11.7942 10.0315V10.4047H10.8333C10.4917 10.4047 10.2053 10.5188 9.9742 10.7471C9.74309 10.9753 9.62754 11.258 9.62754 11.5953V14.9677C9.62754 15.3093 9.74309 15.5957 9.9742 15.8268C10.2053 16.0579 10.4917 16.1735 10.8333 16.1735H13.9609V17.1344H10.8178C10.4806 17.1344 10.1979 17.2485 9.96987 17.4767C9.74165 17.7049 9.62754 17.9878 9.62754 18.3252C9.62754 18.6625 9.74309 18.9478 9.9742 19.1811C10.2053 19.4142 10.4917 19.5307 10.8333 19.5307H11.7942ZM6.68358 24.354C5.88372 24.354 5.20528 24.0755 4.64827 23.5185C4.09125 22.9615 3.81274 22.283 3.81274 21.4832V4.51707C3.81274 3.71721 4.09125 3.03877 4.64827 2.48176C5.20528 1.92475 5.88372 1.64624 6.68358 1.64624H16.1581L22.1872 7.67526V21.4832C22.1872 22.283 21.9087 22.9615 21.3516 23.5185C20.7946 24.0755 20.1162 24.354 19.3163 24.354H6.68358ZM15.1666 4.51707V7.23136C15.1666 7.63021 15.3062 7.96911 15.5853 8.24807C15.8643 8.52721 16.2032 8.66678 16.602 8.66678H19.3163L15.1666 4.51707Z" fill="#4B5563"/>
</g>
</svg>
