<svg width="27" height="27" viewBox="0 0 27 27" fill="none" xmlns="http://www.w3.org/2000/svg">
<mask id="mask0_4_384" style="mask-type:alpha" maskUnits="userSpaceOnUse" x="0" y="0" width="27" height="27">
<rect width="27" height="27" fill="#16A31C"/>
</mask>
<g mask="url(#mask0_4_384)">
<path d="M7.87498 24.9885C7.25623 24.9885 6.72654 24.7682 6.28591 24.3275C5.84529 23.8869 5.62498 23.3572 5.62498 22.7385C5.62498 22.1197 5.84529 21.59 6.28591 21.1494C6.72654 20.7088 7.25623 20.4885 7.87498 20.4885C8.49373 20.4885 9.02341 20.7088 9.46404 21.1494C9.90466 21.59 10.125 22.1197 10.125 22.7385C10.125 23.3572 9.90466 23.8869 9.46404 24.3275C9.02341 24.7682 8.49373 24.9885 7.87498 24.9885ZM19.125 24.9885C18.5062 24.9885 17.9765 24.7682 17.5359 24.3275C17.0953 23.8869 16.875 23.3572 16.875 22.7385C16.875 22.1197 17.0953 21.59 17.5359 21.1494C17.9765 20.7088 18.5062 20.4885 19.125 20.4885C19.7437 20.4885 20.2734 20.7088 20.714 21.1494C21.1547 21.59 21.375 22.1197 21.375 22.7385C21.375 23.3572 21.1547 23.8869 20.714 24.3275C20.2734 24.7682 19.7437 24.9885 19.125 24.9885ZM5.99313 4.26147H21.9828C22.6008 4.26147 23.0709 4.53316 23.3932 5.07654C23.7157 5.61991 23.7261 6.17323 23.4244 6.73648L19.7963 13.3166C19.5689 13.7233 19.2634 14.0431 18.88 14.2759C18.4966 14.5086 18.0769 14.625 17.6209 14.625H9.38276L8.28841 16.6365H20.25C20.6362 16.6365 20.96 16.7672 21.2214 17.0285C21.4828 17.2899 21.6135 17.6137 21.6135 18C21.6135 18.3862 21.4828 18.71 21.2214 18.9714C20.96 19.2328 20.6362 19.3635 20.25 19.3635H7.87498C6.9146 19.3635 6.1976 18.9508 5.72397 18.1254C5.25035 17.2998 5.23694 16.4844 5.68376 15.6791L7.15469 13.05L3.23182 4.73847H2.24997C1.86372 4.73847 1.53991 4.60779 1.27854 4.34641C1.01716 4.08504 0.886475 3.76122 0.886475 3.37497C0.886475 2.98872 1.01716 2.66491 1.27854 2.40354C1.53991 2.14216 1.86372 2.01147 2.24997 2.01147H3.98276C4.26326 2.01147 4.52688 2.08572 4.77363 2.23422C5.02057 2.38272 5.20572 2.59301 5.3291 2.86507L5.99313 4.26147Z" fill="#16A31C"/>
</g>
</svg>
