<svg width="20" height="20" viewBox="0 0 20 20" fill="none" xmlns="http://www.w3.org/2000/svg">
<mask id="mask0_60_1649" style="mask-type:alpha" maskUnits="userSpaceOnUse" x="0" y="0" width="20" height="20">
<rect width="20" height="20" fill="#828282"/>
</mask>
<g mask="url(#mask0_60_1649)">
<path d="M9.16668 12.3541V15C9.16668 15.2361 9.24654 15.434 9.40626 15.5937C9.56598 15.7534 9.7639 15.8333 10 15.8333C10.2361 15.8333 10.434 15.7534 10.5938 15.5937C10.7535 15.434 10.8333 15.2361 10.8333 15V12.3541L11.5833 13.1041C11.6667 13.1875 11.7604 13.25 11.8646 13.2916C11.9688 13.3333 12.0729 13.3507 12.1771 13.3437C12.2813 13.3368 12.382 13.3125 12.4792 13.2708C12.5764 13.2291 12.6667 13.1666 12.75 13.0833C12.9028 12.9166 12.9826 12.7222 12.9896 12.5C12.9965 12.2777 12.9167 12.0833 12.75 11.9166L10.5833 9.74996C10.5 9.66663 10.4097 9.6076 10.3125 9.57288C10.2153 9.53815 10.1111 9.52079 10 9.52079C9.8889 9.52079 9.78473 9.53815 9.68751 9.57288C9.59029 9.6076 9.50001 9.66663 9.41668 9.74996L7.25001 11.9166C7.08334 12.0833 7.00348 12.2777 7.01043 12.5C7.01737 12.7222 7.10418 12.9166 7.27084 13.0833C7.43751 13.2361 7.63195 13.3159 7.85418 13.3229C8.0764 13.3298 8.27084 13.25 8.43751 13.0833L9.16668 12.3541ZM5.00001 18.3333C4.54168 18.3333 4.14932 18.1701 3.82293 17.8437C3.49654 17.5173 3.33334 17.125 3.33334 16.6666V3.33329C3.33334 2.87496 3.49654 2.4826 3.82293 2.15621C4.14932 1.82982 4.54168 1.66663 5.00001 1.66663H10.9792C11.2014 1.66663 11.4132 1.70829 11.6146 1.79163C11.816 1.87496 11.9931 1.99301 12.1458 2.14579L16.1875 6.18746C16.3403 6.34024 16.4583 6.51732 16.5417 6.71871C16.625 6.9201 16.6667 7.1319 16.6667 7.35413V16.6666C16.6667 17.125 16.5035 17.5173 16.1771 17.8437C15.8507 18.1701 15.4583 18.3333 15 18.3333H5.00001ZM10.8333 6.66663C10.8333 6.90274 10.9132 7.10065 11.0729 7.26038C11.2326 7.4201 11.4306 7.49996 11.6667 7.49996H15L10.8333 3.33329V6.66663Z" fill="#828282"/>
</g>
</svg>
