<svg width="30" height="30" viewBox="0 0 30 30" fill="none" xmlns="http://www.w3.org/2000/svg">
<mask id="mask0_4_311" style="mask-type:alpha" maskUnits="userSpaceOnUse" x="0" y="0" width="30" height="30">
<rect width="30" height="30" fill="#EF4229"/>
</mask>
<g mask="url(#mask0_4_311)">
<path d="M3.60062 26.5504C3.28896 26.5504 3.00948 26.4736 2.76219 26.32C2.51469 26.1667 2.32219 25.9645 2.18469 25.7135C2.04531 25.467 1.97042 25.1985 1.96 24.9079C1.94958 24.6174 2.02448 24.3339 2.18469 24.0572L13.5531 4.37504C13.7133 4.09608 13.9254 3.88983 14.1894 3.75629C14.4531 3.62254 14.724 3.55566 15.0019 3.55566C15.2796 3.55566 15.5498 3.62254 15.8125 3.75629C16.0752 3.88983 16.2867 4.09608 16.4469 4.37504L27.8153 24.0572C27.9755 24.3339 28.0504 24.6174 28.04 24.9079C28.0296 25.1985 27.9547 25.467 27.8153 25.7135C27.6757 25.9597 27.4828 26.1608 27.2366 26.3166C26.9901 26.4724 26.711 26.5504 26.3994 26.5504H3.60062ZM15 22.4469C15.366 22.4469 15.6806 22.3153 15.9437 22.0522C16.2069 21.7891 16.3384 21.4746 16.3384 21.1088C16.3384 20.7427 16.2069 20.4311 15.9437 20.1738C15.6806 19.9167 15.366 19.7882 15 19.7882C14.634 19.7882 14.3194 19.9167 14.0562 20.1738C13.7931 20.4311 13.6616 20.7427 13.6616 21.1088C13.6616 21.4746 13.7931 21.7891 14.0562 22.0522C14.3194 22.3153 14.634 22.4469 15 22.4469ZM15 18.75C15.3542 18.75 15.651 18.6302 15.8906 18.3907C16.1302 18.1511 16.25 17.8542 16.25 17.5V13.9444C16.25 13.5902 16.1302 13.2934 15.8906 13.0538C15.651 12.8142 15.3542 12.6944 15 12.6944C14.6458 12.6944 14.349 12.8142 14.1094 13.0538C13.8698 13.2934 13.75 13.5902 13.75 13.9444V17.5C13.75 17.8542 13.8698 18.1511 14.1094 18.3907C14.349 18.6302 14.6458 18.75 15 18.75Z" fill="#EF4229"/>
</g>
</svg>
